<svg width="16" height="16" viewBox="0 0 16 16" fill="none" xmlns="http://www.w3.org/2000/svg">
<g clip-path="url(#clip0_258_73)">
<path d="M8 4.66683V3.3335H10V4.00016H10.6667V4.66683H11.3333V5.3335H12V6.00016H12.6667V8.00016H11.3333V6.66683H10.6667V6.00016H10V5.3335H9.33333V4.66683H8Z" fill="white"/>
<path d="M14.6667 11.3335V10.6668H14V10.0001H12.6667V9.33348H10.6667V10.0001H10V10.6668H8.00002V10.0001H7.33335V9.33348H6.66669V8.66681H6.00002V8.00014H5.33335V6.00014H6.00002V5.33348H6.66669V3.33348H6.00002V2.00014H5.33335V1.33348H4.66669V0.666809H2.66669V1.33348H1.33335V2.00014H0.666687V5.33348H1.33335V8.00014H2.00002V9.33348H2.66669V10.0001H3.33335V10.6668H4.00002V11.3335H4.66669V12.0001H5.33335V12.6668H6.00002V13.3335H6.66669V14.0001H8.00002V14.6668H10.6667V15.3335H14V14.6668H14.6667V13.3335H15.3334V11.3335H14.6667ZM14 13.3335H13.3334V14.0001H10.6667V13.3335H8.00002V12.6668H6.66669V12.0001H6.00002V11.3335H5.33335V10.6668H4.66669V10.0001H4.00002V9.33348H3.33335V8.00014H2.66669V5.33348H2.00002V2.66681H2.66669V2.00014H4.66669V3.33348H5.33335V5.33348H4.66669V6.00014H4.00002V8.00014H4.66669V8.66681H5.33335V9.33348H6.00002V10.0001H6.66669V10.6668H7.33335V11.3335H8.00002V12.0001H10V11.3335H10.6667V10.6668H12.6667V11.3335H14V13.3335Z" fill="white"/>
</g>
<defs>
<clipPath id="clip0_258_73">
<rect width="16" height="16" fill="white"/>
</clipPath>
</defs>
</svg>
