<svg width="16" height="16" viewBox="0 0 16 16" fill="none" xmlns="http://www.w3.org/2000/svg">
<path d="M6 12.6667H6.66667V14H6V14.6667H4.66667V14H4V12.6667H4.66667V12H6V12.6667Z" fill="white"/>
<path d="M13.3333 12.6667H14V14H13.3333V14.6667H12V14H11.3333V12.6667H12V12H13.3333V12.6667Z" fill="white"/>
<path d="M2.66667 2V1.33334H0.666672V2.66667H2.66667V4.66667H3.33334V8H4.00001V10.6667H4.66667V11.3333H13.3333V10H5.33334V8.66667H13.3333V8H14V6H14.6667V4H15.3333V2H2.66667ZM13.3333 4V6H12.6667V7.33334H4.66667V4.66667H4.00001V3.33334H14V4H13.3333Z" fill="white"/>
</svg>
