<svg width="86" height="12" viewBox="0 0 86 12" fill="none" xmlns="http://www.w3.org/2000/svg">
<path d="M54.333 12H52.7588V10.4434H54.333V12ZM13.9521 1.02539L12.9473 1.25195V7.97266C12.9473 8.55932 13.0319 9.05184 13.2002 9.4502C13.3727 9.84869 13.611 10.1508 13.915 10.3555C14.219 10.5546 14.5704 10.6543 14.9688 10.6543C15.3713 10.6543 15.7271 10.5547 16.0352 10.3555C16.3472 10.1563 16.5892 9.85719 16.7617 9.45898C16.9383 9.06059 17.0273 8.56483 17.0273 7.97266V1.25195L16.0225 1.02539V0H19.2461V1.02539L18.2412 1.25195V7.97266C18.2412 8.82322 18.1033 9.5445 17.8281 10.1367C17.557 10.7237 17.1746 11.1706 16.6816 11.4775C16.1887 11.779 15.6116 11.9307 14.9502 11.9307C14.3341 11.9306 13.7835 11.7717 13.2988 11.4541C12.814 11.1364 12.4317 10.6836 12.1523 10.0967C11.8731 9.50445 11.7334 8.79634 11.7334 7.97266V1.25195L10.7295 1.02539V0H13.9521V1.02539ZM3.22266 1.02539L2.21875 1.25195V6.30762L5.74316 1.17871L5.76758 1.13867L5.09668 1.02539V0H7.97461V1.02539L7.12988 1.22754L4.38867 5.1377L7.46875 10.541L8.29492 10.7432V11.7607H5.2998V10.7432L6.03906 10.6299L6.0332 10.6221L3.62012 6.23535L2.21875 8.23535V10.5166L3.22266 10.7432V11.7607H0V10.7432L1.00488 10.5166V1.25195L0 1.02539V0H3.22266V1.02539ZM25.9912 0.0078125C26.6443 0.00786035 27.1949 0.137076 27.6426 0.395508C28.0944 0.648595 28.4377 1.01737 28.6719 1.50195C28.906 1.9866 29.0225 2.57925 29.0225 3.2793C29.0225 3.96843 28.9077 4.54719 28.6777 5.01562C28.4518 5.48412 28.129 5.83971 27.71 6.08203C27.573 6.15948 27.4271 6.22349 27.2734 6.27734L28.7891 10.5732L29.4111 10.7188V11.7607H27.9131L26.1123 6.46387L24.21 6.50977V10.5166L25.2148 10.7432V11.7607H21.9912V10.7432L22.9961 10.5166V1.25195L21.9912 1.02539V0.0078125H25.9912ZM34.8096 1.02539L33.9902 1.19531L35.999 8.6748L36.209 9.60352H36.2451L36.4678 8.6748L38.5498 1.1875L37.6387 1.02539V0H40.4668V1.02539L39.7461 1.15527L36.7383 11.7607H35.6973L32.6895 1.15527L31.9746 1.02539V0H34.8096V1.02539ZM49.3936 10.6221L50.0527 10.7432V11.7607H47.4766V10.7432L48.1543 10.5898L47.5635 8.4248H43.9707L43.3604 10.5898L44.0381 10.7432V11.7607H41.4688V10.7432L42.1338 10.6221L45.2705 0H46.3125L49.3936 10.6221ZM61.6113 0C62.548 1.40074e-05 63.2788 0.266708 63.8047 0.799805C64.3347 1.32753 64.5996 2.12177 64.5996 3.18262C64.5996 3.70483 64.4724 4.17333 64.2178 4.58789C63.9672 4.99707 63.6346 5.30176 63.2197 5.50098C63.5812 5.59792 63.8916 5.78886 64.1504 6.07422C64.4091 6.3542 64.6084 6.69924 64.748 7.1084C64.8917 7.51207 64.9638 7.95607 64.9639 8.44043C64.9639 9.51743 64.6962 10.3413 64.1621 10.9121C63.628 11.4775 62.9052 11.7607 61.9932 11.7607H57.7412V10.7432L58.7461 10.5166V1.25195L57.7412 1.02539V0H61.6113ZM75.0117 10.6221L75.6709 10.7432V11.7607H73.0957V10.7432L73.7734 10.5898L73.1816 8.4248H69.5889L68.9785 10.5898L69.6562 10.7432V11.7607H67.0869V10.7432L67.7529 10.6221L70.8887 0H71.9307L75.0117 10.6221ZM81.623 0.0078125C82.2761 0.0078125 82.8267 0.137163 83.2744 0.395508C83.7262 0.648553 84.0695 1.01744 84.3037 1.50195C84.5379 1.9866 84.6553 2.57925 84.6553 3.2793C84.6553 3.96836 84.5405 4.54721 84.3105 5.01562C84.0846 5.48407 83.7618 5.83971 83.3428 6.08203C83.2058 6.15946 83.0599 6.22349 82.9062 6.27734L84.4209 10.5732L85.0439 10.7188V11.7607H83.5459L81.7451 6.46387L79.8428 6.50977V10.5166L80.8467 10.7432V11.7607H77.624V10.7432L78.6279 10.5166V1.25195L77.624 1.02539V0.0078125H81.623ZM59.96 10.5166H61.9932C62.5478 10.5166 62.9772 10.3388 63.2812 9.9834C63.5893 9.62263 63.7431 9.11389 63.7432 8.45703C63.7432 7.99399 63.6863 7.59799 63.5713 7.26953C63.4604 6.94108 63.2879 6.68747 63.0537 6.50977C62.8236 6.33206 62.531 6.24414 62.1777 6.24414H59.96V10.5166ZM45.6895 2.30957L44.3467 7.0918H47.1934L45.875 2.30957L45.8008 2.04297H45.7637L45.6895 2.30957ZM71.3086 2.30957L69.9648 7.0918H72.8115L71.4932 2.30957L71.4189 2.04297H71.3818L71.3086 2.30957ZM24.21 5.25781H25.8672C26.5451 5.25781 27.0386 5.08828 27.3467 4.74902C27.6547 4.40977 27.8086 3.91414 27.8086 3.2627C27.8085 2.64364 27.6609 2.15368 27.3652 1.79297C27.0695 1.43224 26.6114 1.25202 25.9912 1.25195H24.21V5.25781ZM79.8428 5.25781H81.5C82.1779 5.25781 82.6714 5.08828 82.9795 4.74902C83.2874 4.40978 83.4414 3.91404 83.4414 3.2627C83.4413 2.6436 83.2928 2.15369 82.9971 1.79297C82.7013 1.43233 82.2433 1.25195 81.623 1.25195H79.8428V5.25781ZM59.96 5H61.9258C62.3611 4.99994 62.7125 4.83526 62.9795 4.50684C63.2505 4.17306 63.3857 3.7209 63.3857 3.15039C63.3857 2.51496 63.2337 2.04085 62.9297 1.72852C62.6257 1.41086 62.1864 1.25197 61.6113 1.25195H59.96V5Z" fill="white"/>
</svg>
