<svg width="326" height="46" viewBox="0 0 326 46" fill="none" xmlns="http://www.w3.org/2000/svg">
<path d="M208.277 46H202.241V40.0342H208.277V46ZM53.4834 3.93262L49.6328 4.79883V30.5605C49.6328 32.8106 49.9559 34.7 50.6016 36.2275C51.263 37.7549 52.1765 38.9109 53.3418 39.6953C54.5071 40.459 55.8534 40.8408 57.3809 40.8408C58.9242 40.8408 60.2866 40.4591 61.4678 39.6953C62.6645 38.9316 63.5935 37.786 64.2549 36.2588C64.9321 34.7312 65.2705 32.8312 65.2705 30.5605V4.79883L61.4199 3.93262V0H73.7754V3.93262L69.9248 4.79883V30.5605C69.9248 33.8221 69.3969 36.5887 68.3418 38.8594C67.3025 41.1092 65.8379 42.8224 63.9482 43.999C62.0584 45.155 59.8451 45.7334 57.3096 45.7334C54.9476 45.7333 52.8376 45.124 50.9795 43.9062C49.1212 42.6883 47.6559 40.9541 46.585 38.7041C45.5142 36.4335 44.9785 33.7187 44.9785 30.5605V4.79883L41.1289 3.93262V0H53.4834V3.93262ZM12.3545 3.93262L8.50391 4.79883V24.1797L22.0166 4.52051L22.1104 4.36523L19.5361 3.93262V0H30.5674V3.93262L27.3311 4.70605L16.8252 19.6982L28.6309 40.4072L31.7959 41.1816V45.083H20.3154V41.1816L23.1504 40.748L23.127 40.7168L13.8789 23.9033L8.50391 31.5752V40.3145L12.3545 41.1816V45.083H0V41.1816L3.85059 40.3145V4.79883L0 3.93262V0H12.3545V3.93262ZM99.6318 0.0302734C102.136 0.0303059 104.246 0.525794 105.963 1.5166C107.695 2.48675 109.01 3.90115 109.907 5.75879C110.805 7.61661 111.254 9.88776 111.254 12.5713C111.254 15.2134 110.813 17.4327 109.931 19.2285C109.065 21.0241 107.829 22.3866 106.223 23.3154C105.698 23.6123 105.14 23.8629 104.551 24.0693L110.356 40.5312L112.742 41.0889V45.083H107.002L100.098 24.7803L92.8047 24.9561V40.3145L96.6553 41.1816V45.083H84.3008V41.1816L88.1514 40.3145V4.79883L84.3008 3.93262V0.0302734H99.6318ZM133.438 3.93262L130.295 4.58203L137.996 33.2549L138.8 36.8154H138.941L139.792 33.2549L147.776 4.55176L144.28 3.93262V0H155.123V3.93262L152.358 4.42773L140.831 45.083H136.839L125.311 4.42773L122.57 3.93262V0H133.438V3.93262ZM189.341 40.7168L191.868 41.1816V45.083H181.994V41.1816L184.593 40.5928L182.325 32.2949H168.553L166.215 40.5928L168.812 41.1816V45.083H158.962V41.1816L161.514 40.7168L173.537 0H177.529L189.341 40.7168ZM236.177 0C239.767 5.126e-05 242.57 1.02187 244.586 3.06543C246.617 5.08835 247.634 8.13279 247.634 12.1992C247.634 14.2015 247.145 15.9975 246.169 17.5869C245.208 19.1557 243.932 20.3222 242.342 21.0859C243.728 21.4575 244.917 22.1902 245.909 23.2842C246.901 24.3576 247.665 25.6792 248.2 27.248C248.751 28.7961 249.027 30.4988 249.027 32.3564C249.027 36.4849 248.003 39.6439 245.956 41.832C243.909 43.9993 241.137 45.083 237.641 45.083H221.342V41.1816L225.192 40.3145V4.79883L221.342 3.93262V0H236.177ZM287.545 40.7168L290.073 41.1816V45.083H280.198V41.1816L282.797 40.5928L280.529 32.2949H266.758L264.419 40.5928L267.018 41.1816V45.083H257.167V41.1816L259.718 40.7168L271.742 0H275.734L287.545 40.7168ZM312.89 0.0302734C315.394 0.0303019 317.504 0.52579 319.221 1.5166C320.953 2.48675 322.267 3.90116 323.165 5.75879C324.063 7.61661 324.512 9.88776 324.512 12.5713C324.512 15.2134 324.07 17.4327 323.188 19.2285C322.322 21.0241 321.087 22.3866 319.48 23.3154C318.955 23.6123 318.398 23.8629 317.809 24.0693L323.614 40.5312L326 41.0889V45.083H320.26L313.355 24.7803L306.062 24.9561V40.3145L309.913 41.1816V45.083H297.559V41.1816L301.409 40.3145V4.79883L297.559 3.93262V0.0302734H312.89ZM229.846 40.3145H237.641C239.767 40.3145 241.413 39.6329 242.578 38.2705C243.759 36.8875 244.35 34.9371 244.35 32.4189C244.35 30.6437 244.129 29.1264 243.688 27.8672C243.263 26.608 242.602 25.6373 241.704 24.9561C240.822 24.275 239.704 23.9346 238.35 23.9346H229.846V40.3145ZM175.144 8.85547L169.994 27.1855H180.907L175.853 8.85547L175.569 7.83398H175.427L175.144 8.85547ZM273.348 8.85547L268.198 27.1855H279.112L274.057 8.85547L273.773 7.83398H273.632L273.348 8.85547ZM92.8047 20.1572H99.1592C101.758 20.1572 103.647 19.5065 104.828 18.2061C106.009 16.9056 106.601 15.0065 106.601 12.5088C106.601 10.1352 106.033 8.25699 104.899 6.87402C103.766 5.49102 102.01 4.79888 99.6318 4.79883H92.8047V20.1572ZM306.062 20.1572H312.417C315.015 20.1572 316.905 19.5065 318.086 18.2061C319.267 16.9056 319.858 15.0065 319.858 12.5088C319.858 10.1351 319.291 8.25699 318.157 6.87402C317.023 5.49102 315.268 4.79887 312.89 4.79883H306.062V20.1572ZM229.846 19.166H237.381C239.05 19.166 240.397 18.5365 241.421 17.2773C242.46 15.9975 242.979 14.2632 242.979 12.0752C242.979 9.63959 242.397 7.82317 241.231 6.62598C240.066 5.40823 238.381 4.79888 236.177 4.79883H229.846V19.166Z" fill="black"/>
</svg>
